<svg class="w-8 h-8" xmlns="http://www.w3.org/2000/svg"
    version="1.1" viewBox="0 0 350 350">
    <g transform="translate(-258.272 -38.53)">
        <path fill="currentColor" style="fill:#ee7e25;fill-opacity:1"
            d="m342.425 47.226-75.2 75.201 33.7 33.7c6.3-6.3 12.7-12.801 19.2-19.401.7.7 1.3 1.201 1.8 1.701 8.1 8.2 16.2 16.298 24.4 24.398 1.2 1.1 1.6 2.3 1.6 3.9 0 13.5.1 27 0 40.5-.1 11.3 2.4 22.102 7.3 32.302 1.9 3.9 4.2 7.699 6.1 11.199l-41.8 41.8c-6.3-6.4-12.7-12.899-18.8-19.099l-33.2 33.2c25 24.9 50.1 50.1 75 75 11-10.9 22.1-22.1 33.5-33.5-6.3-6.2-12.8-12.6-18.9-18.7l35.4-35.4c6.2 8.6 12.5 17.6 19 26.5 5.6 7.8 13.4 11.8 23 12 9.6-.2 17.4-4.2 23-12 6.5-8.9 12.8-17.9 19-26.5l35.4 35.4c-6.1 6.1-12.6 12.5-18.9 18.7 11.4 11.4 22.5 22.6 33.5 33.5 24.9-24.9 50-50.1 75-75l-33.2-33.2c-6.1 6.2-12.5 12.7-18.8 19.1l-41.8-41.801c1.9-3.5 4.2-7.3 6.1-11.2 4.9-10.2 7.4-21 7.3-32.3-.1-13.5 0-27 0-40.5 0-1.6.4-2.8 1.6-3.9 8.2-8.1 16.3-16.199 24.4-24.399.5-.5 1.1-1.001 1.8-1.701 6.5 6.6 12.9 13.1 19.2 19.4l33.7-33.699-75.2-75.201-33.6 33.6c6.3 6.2 12.8 12.7 19.3 19.2-.6.7-1 1.2-1.5 1.7l-22.8 22.8c-.8.8-2 1.5-3.2 1.7-16.65 2.924-33.439 4.126-50.3 4.02-16.862.106-33.65-1.096-50.3-4.02-1.2-.2-2.4-.9-3.2-1.7l-22.8-22.8c-.5-.5-.9-1-1.5-1.7 6.5-6.5 13-13 19.3-19.2zm27.451 91.199c.536.01 1.086.076 1.649.201 20.823 4.422 41.841 6.225 63 6.203 21.158.022 42.177-1.781 63-6.203 4.5-1 8.3 1.801 8.6 6.301 1.4 19 .2 37.9-4.1 56.6-3.3 14.4-8.3 28.2-16.9 40.5-2.3 3.3-5.4 4.898-9.4 4.298-4-.6-6.3-3-7.7-6.6-1.4-3.7-2.8-7.499-4.5-11.099-3.7-7.9-8.2-15.3-15.2-20.8-4.085-3.269-8.591-5.278-13.8-5.25-5.209-.028-9.716 1.981-13.8 5.25-7 5.5-11.5 12.9-15.2 20.8-1.7 3.6-3.1 7.4-4.5 11.1-1.4 3.6-3.7 6-7.7 6.6-4 .6-7.1-1-9.4-4.3-8.6-12.3-13.6-26.1-16.9-40.5-4.3-18.7-5.5-37.599-4.1-56.599.263-3.938 3.205-6.574 6.951-6.502z" />
    </g>
</svg>